<svg xmlns="http://www.w3.org/2000/svg" xmlns:xlink="http://www.w3.org/1999/xlink" width="500" zoomAndPan="magnify" viewBox="0 0 375 374.999991" height="500" preserveAspectRatio="xMidYMid meet" version="1.0"><defs><g/><clipPath id="312e9a50fc"><path d="M 84.160156 80 L 275 80 L 275 295 L 84.160156 295 Z M 84.160156 80 " clip-rule="nonzero"/></clipPath></defs><path fill="#00c2cb" d="M 251.472656 248.910156 C 257.933594 237.613281 261.628906 224.523438 261.628906 210.578125 C 261.628906 205.964844 261.226562 201.453125 260.453125 197.066406 C 257.320312 214.464844 248.070312 229.742188 235.003906 240.578125 C 227.441406 246.847656 216.1875 245.574219 210.269531 237.734375 L 199.226562 223.101562 C 197.390625 220.667969 194.515625 219.238281 191.46875 219.238281 L 149.390625 219.238281 C 149.382812 219.238281 149.375 219.242188 149.363281 219.242188 C 146.492188 219.257812 144.632812 222.289062 145.921875 224.859375 L 147.597656 228.195312 C 150.710938 234.398438 156.839844 238.519531 163.757812 239.0625 L 166.25 239.257812 L 177.164062 240.121094 C 180.25 240.363281 183.035156 242.070312 184.652344 244.714844 L 189.601562 252.808594 L 192.371094 257.339844 L 207.894531 282.730469 C 208.167969 283.183594 208.515625 283.578125 208.910156 283.90625 C 210.046875 284.859375 211.589844 285.257812 213.085938 284.886719 C 213.09375 284.882812 213.105469 284.882812 213.117188 284.878906 C 253.378906 274.941406 284.394531 241.542969 290.835938 200.019531 C 285.183594 221.320312 270.667969 239.015625 251.472656 248.910156 " fill-opacity="1" fill-rule="nonzero"/><g clip-path="url(#312e9a50fc)"><path fill="#003479" d="M 181.683594 246.53125 C 180.652344 244.84375 178.859375 243.742188 176.890625 243.589844 L 163.484375 242.53125 C 155.402344 241.894531 148.125 237 144.488281 229.757812 L 142.902344 226.597656 C 141.773438 224.351562 141.746094 221.667969 142.992188 219.480469 C 144.277344 217.226562 146.59375 215.84375 149.160156 215.761719 L 149.390625 215.757812 L 162.863281 215.757812 C 158.46875 208.824219 150.554688 204.925781 142.363281 205.691406 L 128.367188 207 C 122.371094 207.558594 116.980469 203.425781 115.878906 197.503906 C 115.058594 193.117188 114.632812 188.59375 114.632812 183.964844 C 114.632812 160.515625 125.617188 139.628906 142.71875 126.167969 C 125.773438 137.328125 112.585938 153.726562 105.472656 173.0625 C 111.882812 126.484375 151.835938 90.605469 200.175781 90.605469 C 230.101562 90.605469 256.808594 104.355469 274.339844 125.875 C 255.710938 98.285156 224.183594 80.117188 188.40625 80.023438 C 131.136719 79.875 84.273438 126.539062 84.1875 183.808594 C 84.15625 203.96875 89.875 222.789062 99.78125 238.734375 C 99.988281 239.070312 100.195312 239.410156 100.40625 239.746094 L 114.28125 237.394531 C 120.480469 236.34375 125.582031 242.335938 123.472656 248.257812 C 123.417969 248.421875 123.378906 248.511719 123.378906 248.511719 C 132.3125 251.757812 130.804688 260.460938 130.804688 260.460938 C 138.691406 264.058594 135.445312 271.480469 135.445312 271.480469 C 138.234375 272.636719 139.210938 274.890625 139.464844 275.625 C 139.59375 276.003906 139.734375 276.375 139.878906 276.746094 L 145.273438 290.589844 C 146.203125 292.96875 149.050781 294.917969 151.605469 294.917969 C 154.828125 294.917969 157.0625 291.695312 155.925781 288.679688 L 153.402344 281.957031 L 150.035156 272.992188 C 149.800781 272.367188 150.226562 271.679688 150.90625 271.628906 C 151.351562 271.597656 151.761719 271.890625 151.933594 272.300781 L 156.359375 282.957031 L 159.632812 290.84375 C 160.761719 293.558594 163.738281 295.117188 166.5625 294.292969 C 169.945312 293.304688 171.628906 289.519531 170.101562 286.347656 C 170.097656 286.34375 170.097656 286.339844 170.097656 286.335938 L 161.992188 269.597656 C 161.644531 268.878906 162.121094 268.035156 162.914062 267.957031 C 163.375 267.914062 163.816406 268.148438 164.03125 268.554688 L 173.894531 286.933594 L 175.117188 289.214844 C 176.324219 291.460938 178.964844 292.632812 181.382812 291.832031 C 183.265625 291.207031 184.519531 289.632812 184.851562 287.851562 C 185.054688 286.765625 184.917969 285.605469 184.363281 284.535156 L 176.648438 269.578125 C 176.308594 268.921875 176.558594 268.078125 177.242188 267.792969 C 177.847656 267.542969 178.527344 267.800781 178.824219 268.359375 L 187.546875 284.835938 C 188.25 286.167969 189.300781 287.199219 190.527344 287.882812 C 192.574219 289.015625 195.109375 289.175781 197.371094 288.109375 C 197.804688 287.902344 198.207031 287.65625 198.582031 287.382812 C 201.671875 285.136719 202.644531 280.816406 200.570312 277.421875 L 181.683594 246.53125 " fill-opacity="1" fill-rule="nonzero"/></g><path fill="#00c2cb" d="M 106.28125 252.777344 L 117.195312 250.96875 C 120.46875 250.421875 122.683594 247.328125 122.140625 244.054688 C 121.597656 240.777344 118.5 238.5625 115.226562 239.105469 L 104.3125 240.917969 C 101.039062 241.460938 98.824219 244.554688 99.367188 247.832031 C 99.910156 251.105469 103.007812 253.320312 106.28125 252.777344 " fill-opacity="1" fill-rule="nonzero"/><path fill="#00c2cb" d="M 127.710938 255.886719 C 127.164062 252.609375 124.070312 250.398438 120.792969 250.941406 L 105.898438 253.789062 C 102.625 254.332031 100.410156 257.425781 100.953125 260.699219 C 101.496094 263.976562 104.589844 266.191406 107.867188 265.648438 L 122.761719 262.800781 C 126.039062 262.257812 128.253906 259.160156 127.710938 255.886719 " fill-opacity="1" fill-rule="nonzero"/><path fill="#00c2cb" d="M 132.734375 268.261719 C 132.191406 264.984375 129.097656 262.769531 125.824219 263.3125 L 114.910156 265.125 C 111.632812 265.667969 109.417969 268.761719 109.960938 272.039062 C 110.503906 275.3125 113.601562 277.527344 116.875 276.984375 L 127.789062 275.175781 C 131.066406 274.628906 133.277344 271.535156 132.734375 268.261719 " fill-opacity="1" fill-rule="nonzero"/><path fill="#00c2cb" d="M 133.402344 274.914062 L 124.4375 276.34375 C 121.164062 276.882812 118.949219 279.980469 119.492188 283.253906 C 120.035156 286.53125 123.132812 288.746094 126.40625 288.203125 L 135.367188 286.777344 C 138.644531 286.230469 140.859375 283.136719 140.316406 279.859375 C 139.773438 276.585938 136.675781 274.371094 133.402344 274.914062 " fill-opacity="1" fill-rule="nonzero"/><path fill="#003479" d="M 148.648438 184.261719 L 186.335938 184.261719 L 186.335938 185.761719 L 148.648438 185.761719 Z M 148.648438 184.261719 " fill-opacity="1" fill-rule="nonzero"/><g fill="#003479" fill-opacity="1"><g transform="translate(148.648866, 182.761716)"><g><path d="M 10.75 -8.5625 C 10.75 -7.832031 10.578125 -7.164062 10.234375 -6.5625 C 9.898438 -5.957031 9.382812 -5.46875 8.6875 -5.09375 C 8 -4.71875 7.140625 -4.53125 6.109375 -4.53125 L 4.1875 -4.53125 L 4.1875 0 L 1.109375 0 L 1.109375 -12.640625 L 6.109375 -12.640625 C 7.109375 -12.640625 7.957031 -12.460938 8.65625 -12.109375 C 9.351562 -11.765625 9.875 -11.285156 10.21875 -10.671875 C 10.570312 -10.054688 10.75 -9.351562 10.75 -8.5625 Z M 5.875 -6.984375 C 6.457031 -6.984375 6.890625 -7.117188 7.171875 -7.390625 C 7.460938 -7.671875 7.609375 -8.0625 7.609375 -8.5625 C 7.609375 -9.070312 7.460938 -9.460938 7.171875 -9.734375 C 6.890625 -10.015625 6.457031 -10.15625 5.875 -10.15625 L 4.1875 -10.15625 L 4.1875 -6.984375 Z M 5.875 -6.984375 "/></g></g></g><g fill="#003479" fill-opacity="1"><g transform="translate(159.873586, 182.761716)"><g><path d="M 5.6875 0.140625 C 4.707031 0.140625 3.820312 -0.0664062 3.03125 -0.484375 C 2.25 -0.898438 1.628906 -1.5 1.171875 -2.28125 C 0.722656 -3.0625 0.5 -3.972656 0.5 -5.015625 C 0.5 -6.046875 0.726562 -6.953125 1.1875 -7.734375 C 1.644531 -8.523438 2.269531 -9.128906 3.0625 -9.546875 C 3.851562 -9.972656 4.738281 -10.1875 5.71875 -10.1875 C 6.707031 -10.1875 7.597656 -9.972656 8.390625 -9.546875 C 9.179688 -9.128906 9.800781 -8.523438 10.25 -7.734375 C 10.707031 -6.953125 10.9375 -6.046875 10.9375 -5.015625 C 10.9375 -3.984375 10.707031 -3.070312 10.25 -2.28125 C 9.789062 -1.5 9.160156 -0.898438 8.359375 -0.484375 C 7.554688 -0.0664062 6.664062 0.140625 5.6875 0.140625 Z M 5.6875 -2.515625 C 6.269531 -2.515625 6.769531 -2.726562 7.1875 -3.15625 C 7.601562 -3.59375 7.8125 -4.210938 7.8125 -5.015625 C 7.8125 -5.828125 7.609375 -6.445312 7.203125 -6.875 C 6.804688 -7.3125 6.3125 -7.53125 5.71875 -7.53125 C 5.125 -7.53125 4.628906 -7.316406 4.234375 -6.890625 C 3.835938 -6.460938 3.640625 -5.835938 3.640625 -5.015625 C 3.640625 -4.210938 3.832031 -3.59375 4.21875 -3.15625 C 4.613281 -2.726562 5.101562 -2.515625 5.6875 -2.515625 Z M 5.6875 -2.515625 "/></g></g></g><g fill="#003479" fill-opacity="1"><g transform="translate(171.332142, 182.761716)"><g><path d="M 4.1875 -8.375 C 4.550781 -8.925781 5.003906 -9.359375 5.546875 -9.671875 C 6.085938 -9.992188 6.6875 -10.15625 7.34375 -10.15625 L 7.34375 -6.890625 L 6.5 -6.890625 C 5.726562 -6.890625 5.148438 -6.722656 4.765625 -6.390625 C 4.378906 -6.066406 4.1875 -5.488281 4.1875 -4.65625 L 4.1875 0 L 1.109375 0 L 1.109375 -10.046875 L 4.1875 -10.046875 Z M 4.1875 -8.375 "/></g></g></g><g fill="#003479" fill-opacity="1"><g transform="translate(179.031143, 182.761716)"><g><path d="M 6.71875 -2.609375 L 6.71875 0 L 5.140625 0 C 4.023438 0 3.15625 -0.269531 2.53125 -0.8125 C 1.914062 -1.363281 1.609375 -2.253906 1.609375 -3.484375 L 1.609375 -7.484375 L 0.375 -7.484375 L 0.375 -10.046875 L 1.609375 -10.046875 L 1.609375 -12.484375 L 4.6875 -12.484375 L 4.6875 -10.046875 L 6.703125 -10.046875 L 6.703125 -7.484375 L 4.6875 -7.484375 L 4.6875 -3.453125 C 4.6875 -3.148438 4.753906 -2.929688 4.890625 -2.796875 C 5.035156 -2.671875 5.273438 -2.609375 5.609375 -2.609375 Z M 6.71875 -2.609375 "/></g></g></g><path fill="#00c2cb" d="M 186.335938 184.261719 L 226.34375 184.261719 L 226.34375 185.761719 L 186.335938 185.761719 Z M 186.335938 184.261719 " fill-opacity="1" fill-rule="nonzero"/><g fill="#00c2cb" fill-opacity="1"><g transform="translate(186.336364, 182.761716)"><g><path d="M 6.15625 -7.484375 L 4.5 -7.484375 L 4.5 0 L 1.421875 0 L 1.421875 -7.484375 L 0.3125 -7.484375 L 0.3125 -10.046875 L 1.421875 -10.046875 L 1.421875 -10.328125 C 1.421875 -11.566406 1.773438 -12.503906 2.484375 -13.140625 C 3.191406 -13.785156 4.226562 -14.109375 5.59375 -14.109375 C 5.820312 -14.109375 5.992188 -14.101562 6.109375 -14.09375 L 6.109375 -11.484375 C 5.515625 -11.515625 5.097656 -11.425781 4.859375 -11.21875 C 4.617188 -11.019531 4.5 -10.660156 4.5 -10.140625 L 4.5 -10.046875 L 6.15625 -10.046875 Z M 6.15625 -7.484375 "/></g></g></g><g fill="#00c2cb" fill-opacity="1"><g transform="translate(192.812163, 182.761716)"><g><path d="M 5.6875 0.140625 C 4.707031 0.140625 3.820312 -0.0664062 3.03125 -0.484375 C 2.25 -0.898438 1.628906 -1.5 1.171875 -2.28125 C 0.722656 -3.0625 0.5 -3.972656 0.5 -5.015625 C 0.5 -6.046875 0.726562 -6.953125 1.1875 -7.734375 C 1.644531 -8.523438 2.269531 -9.128906 3.0625 -9.546875 C 3.851562 -9.972656 4.738281 -10.1875 5.71875 -10.1875 C 6.707031 -10.1875 7.597656 -9.972656 8.390625 -9.546875 C 9.179688 -9.128906 9.800781 -8.523438 10.25 -7.734375 C 10.707031 -6.953125 10.9375 -6.046875 10.9375 -5.015625 C 10.9375 -3.984375 10.707031 -3.070312 10.25 -2.28125 C 9.789062 -1.5 9.160156 -0.898438 8.359375 -0.484375 C 7.554688 -0.0664062 6.664062 0.140625 5.6875 0.140625 Z M 5.6875 -2.515625 C 6.269531 -2.515625 6.769531 -2.726562 7.1875 -3.15625 C 7.601562 -3.59375 7.8125 -4.210938 7.8125 -5.015625 C 7.8125 -5.828125 7.609375 -6.445312 7.203125 -6.875 C 6.804688 -7.3125 6.3125 -7.53125 5.71875 -7.53125 C 5.125 -7.53125 4.628906 -7.316406 4.234375 -6.890625 C 3.835938 -6.460938 3.640625 -5.835938 3.640625 -5.015625 C 3.640625 -4.210938 3.832031 -3.59375 4.21875 -3.15625 C 4.613281 -2.726562 5.101562 -2.515625 5.6875 -2.515625 Z M 5.6875 -2.515625 "/></g></g></g><g fill="#00c2cb" fill-opacity="1"><g transform="translate(204.270719, 182.761716)"><g><path d="M 4.1875 -13.3125 L 4.1875 0 L 1.109375 0 L 1.109375 -13.3125 Z M 4.1875 -13.3125 "/></g></g></g><g fill="#00c2cb" fill-opacity="1"><g transform="translate(209.577276, 182.761716)"><g><path d="M 2.65625 -11.09375 C 2.125 -11.09375 1.6875 -11.25 1.34375 -11.5625 C 1 -11.882812 0.828125 -12.28125 0.828125 -12.75 C 0.828125 -13.226562 1 -13.625 1.34375 -13.9375 C 1.6875 -14.257812 2.125 -14.421875 2.65625 -14.421875 C 3.1875 -14.421875 3.625 -14.257812 3.96875 -13.9375 C 4.3125 -13.625 4.484375 -13.226562 4.484375 -12.75 C 4.484375 -12.28125 4.3125 -11.882812 3.96875 -11.5625 C 3.625 -11.25 3.1875 -11.09375 2.65625 -11.09375 Z M 4.1875 -10.046875 L 4.1875 0 L 1.109375 0 L 1.109375 -10.046875 Z M 4.1875 -10.046875 "/></g></g></g><g fill="#00c2cb" fill-opacity="1"><g transform="translate(214.883832, 182.761716)"><g><path d="M 5.6875 0.140625 C 4.707031 0.140625 3.820312 -0.0664062 3.03125 -0.484375 C 2.25 -0.898438 1.628906 -1.5 1.171875 -2.28125 C 0.722656 -3.0625 0.5 -3.972656 0.5 -5.015625 C 0.5 -6.046875 0.726562 -6.953125 1.1875 -7.734375 C 1.644531 -8.523438 2.269531 -9.128906 3.0625 -9.546875 C 3.851562 -9.972656 4.738281 -10.1875 5.71875 -10.1875 C 6.707031 -10.1875 7.597656 -9.972656 8.390625 -9.546875 C 9.179688 -9.128906 9.800781 -8.523438 10.25 -7.734375 C 10.707031 -6.953125 10.9375 -6.046875 10.9375 -5.015625 C 10.9375 -3.984375 10.707031 -3.070312 10.25 -2.28125 C 9.789062 -1.5 9.160156 -0.898438 8.359375 -0.484375 C 7.554688 -0.0664062 6.664062 0.140625 5.6875 0.140625 Z M 5.6875 -2.515625 C 6.269531 -2.515625 6.769531 -2.726562 7.1875 -3.15625 C 7.601562 -3.59375 7.8125 -4.210938 7.8125 -5.015625 C 7.8125 -5.828125 7.609375 -6.445312 7.203125 -6.875 C 6.804688 -7.3125 6.3125 -7.53125 5.71875 -7.53125 C 5.125 -7.53125 4.628906 -7.316406 4.234375 -6.890625 C 3.835938 -6.460938 3.640625 -5.835938 3.640625 -5.015625 C 3.640625 -4.210938 3.832031 -3.59375 4.21875 -3.15625 C 4.613281 -2.726562 5.101562 -2.515625 5.6875 -2.515625 Z M 5.6875 -2.515625 "/></g></g></g></svg>