<svg xmlns="http://www.w3.org/2000/svg" xmlns:xlink="http://www.w3.org/1999/xlink" width="160" zoomAndPan="magnify" viewBox="0 0 375 374.999991" height="160" preserveAspectRatio="xMidYMid meet" version="1.0"><defs><g/><clipPath id="1ad9c4ffcf"><path d="M 56.488281 151.464844 L 308.242188 151.464844 L 308.242188 223.464844 L 56.488281 223.464844 Z M 56.488281 151.464844 " clip-rule="nonzero"/></clipPath><clipPath id="28353a703e"><path d="M 63.558594 158.238281 L 187.332031 158.238281 L 187.332031 216.761719 L 63.558594 216.761719 Z M 63.558594 158.238281 " clip-rule="nonzero"/></clipPath><clipPath id="b2d07cdb4f"><path d="M 165 154 L 210 154 L 210 219 L 165 219 Z M 165 154 " clip-rule="nonzero"/></clipPath><clipPath id="d65c670aef"><path d="M 182 150.101562 L 210.875 158.238281 L 191.757812 226.09375 L 162.882812 217.960938 Z M 182 150.101562 " clip-rule="nonzero"/></clipPath><clipPath id="160a1ccbb8"><path d="M 182 150.101562 L 210.875 158.238281 L 191.757812 226.09375 L 162.882812 217.960938 Z M 182 150.101562 " clip-rule="nonzero"/></clipPath><clipPath id="f97163c658"><path d="M 182 150.101562 L 210.875 158.238281 L 191.757812 226.09375 L 162.882812 217.960938 Z M 182 150.101562 " clip-rule="nonzero"/></clipPath><clipPath id="fc821ada48"><path d="M 182.011719 150.105469 L 210.863281 158.234375 L 191.746094 226.089844 L 162.894531 217.960938 Z M 182.011719 150.105469 " clip-rule="nonzero"/></clipPath><clipPath id="faee8078a7"><path d="M 165 157 L 210 157 L 210 219 L 165 219 Z M 165 157 " clip-rule="nonzero"/></clipPath><clipPath id="b2b343ba81"><path d="M 182 150.101562 L 210.875 158.238281 L 191.757812 226.09375 L 162.882812 217.960938 Z M 182 150.101562 " clip-rule="nonzero"/></clipPath><clipPath id="a43db56236"><path d="M 182 150.101562 L 210.875 158.238281 L 191.757812 226.09375 L 162.882812 217.960938 Z M 182 150.101562 " clip-rule="nonzero"/></clipPath><clipPath id="6a36734c05"><path d="M 182 150.101562 L 210.875 158.238281 L 191.757812 226.09375 L 162.882812 217.960938 Z M 182 150.101562 " clip-rule="nonzero"/></clipPath><clipPath id="9ddfd872bc"><path d="M 184.472656 151.953125 L 210.5625 159.304688 L 191.746094 226.089844 L 165.65625 218.742188 Z M 184.472656 151.953125 " clip-rule="nonzero"/></clipPath></defs><g clip-path="url(#1ad9c4ffcf)"><path stroke-linecap="butt" transform="matrix(0.75, 0, 0, 0.75, 56.489269, 151.465389)" fill="none" stroke-linejoin="miter" d="M -0.00131672 -0.000727338 L 335.670559 -0.000727338 L 335.670559 96.093023 L -0.00131672 96.093023 Z M -0.00131672 -0.000727338 " stroke="#000000" stroke-width="6" stroke-opacity="1" stroke-miterlimit="4"/></g><g clip-path="url(#28353a703e)"><path fill="#000000" d="M 63.558594 158.238281 L 187.238281 158.238281 L 187.238281 216.761719 L 63.558594 216.761719 Z M 63.558594 158.238281 " fill-opacity="1" fill-rule="nonzero"/></g><g clip-path="url(#b2d07cdb4f)"><g clip-path="url(#d65c670aef)"><g clip-path="url(#160a1ccbb8)"><g clip-path="url(#f97163c658)"><g clip-path="url(#fc821ada48)"><path fill="#ffe212" d="M 209.542969 162.929688 C 205.816406 158.375 201.613281 155.503906 196.933594 154.316406 C 188.957031 165.9375 179.257812 178.507812 171.324219 188.027344 C 175.136719 189.257812 178.964844 190.433594 182.808594 191.554688 C 176.136719 201.703125 169.820312 211.351562 165.683594 218.75 C 173.59375 212.363281 187.710938 197.277344 199.34375 186.636719 C 195.84375 185.34375 192.300781 184.199219 188.71875 183.207031 C 196.757812 175.046875 204.53125 167.058594 209.542969 162.929688 " fill-opacity="1" fill-rule="nonzero"/></g></g></g></g></g><g clip-path="url(#faee8078a7)"><g clip-path="url(#b2b343ba81)"><g clip-path="url(#a43db56236)"><g clip-path="url(#6a36734c05)"><g clip-path="url(#9ddfd872bc)"><path fill="#ffc200" d="M 209.542969 162.929688 C 207.671875 160.644531 205.679688 158.78125 203.570312 157.34375 C 196.964844 165.679688 187.925781 176.628906 179.5625 186.128906 C 182.945312 186.980469 186.316406 187.871094 189.675781 188.800781 C 180.679688 199.953125 171.363281 211.5625 165.683594 218.75 C 173.59375 212.363281 187.710938 197.277344 199.34375 186.636719 C 195.84375 185.34375 192.300781 184.199219 188.71875 183.207031 C 196.757812 175.046875 204.53125 167.058594 209.542969 162.929688 " fill-opacity="1" fill-rule="nonzero"/></g></g></g></g></g><g fill="#ffffff" fill-opacity="1"><g transform="translate(83.071602, 196.618259)"><g><path d="M 2.859375 0 L 2.859375 -19.671875 L 9.53125 -19.671875 C 11.007812 -19.671875 12.296875 -19.394531 13.390625 -18.84375 C 14.484375 -18.300781 15.328125 -17.539062 15.921875 -16.5625 C 16.523438 -15.582031 16.828125 -14.414062 16.828125 -13.0625 C 16.828125 -11.71875 16.523438 -10.550781 15.921875 -9.5625 C 15.328125 -8.582031 14.484375 -7.820312 13.390625 -7.28125 C 12.296875 -6.738281 11.007812 -6.46875 9.53125 -6.46875 L 5.34375 -6.46875 L 5.34375 0 Z M 5.34375 -8.765625 L 9.46875 -8.765625 C 12.6875 -8.765625 14.296875 -10.1875 14.296875 -13.03125 C 14.296875 -15.882812 12.6875 -17.3125 9.46875 -17.3125 L 5.34375 -17.3125 Z M 5.34375 -8.765625 "/></g></g></g><g fill="#ffffff" fill-opacity="1"><g transform="translate(103.148297, 196.618259)"><g><path d="M 11.796875 0.359375 C 9.816406 0.359375 8.054688 -0.0703125 6.515625 -0.9375 C 4.984375 -1.8125 3.785156 -3.015625 2.921875 -4.546875 C 2.054688 -6.085938 1.625 -7.847656 1.625 -9.828125 C 1.625 -11.835938 2.054688 -13.601562 2.921875 -15.125 C 3.785156 -16.65625 4.984375 -17.851562 6.515625 -18.71875 C 8.054688 -19.59375 9.816406 -20.03125 11.796875 -20.03125 C 13.804688 -20.03125 15.570312 -19.59375 17.09375 -18.71875 C 18.625 -17.851562 19.820312 -16.65625 20.6875 -15.125 C 21.5625 -13.601562 22 -11.835938 22 -9.828125 C 22 -7.847656 21.5625 -6.085938 20.6875 -4.546875 C 19.820312 -3.015625 18.625 -1.8125 17.09375 -0.9375 C 15.570312 -0.0703125 13.804688 0.359375 11.796875 0.359375 Z M 4.15625 -9.828125 C 4.15625 -8.316406 4.476562 -6.976562 5.125 -5.8125 C 5.769531 -4.65625 6.664062 -3.75 7.8125 -3.09375 C 8.96875 -2.4375 10.296875 -2.109375 11.796875 -2.109375 C 13.316406 -2.109375 14.644531 -2.4375 15.78125 -3.09375 C 16.925781 -3.75 17.820312 -4.65625 18.46875 -5.8125 C 19.113281 -6.976562 19.4375 -8.316406 19.4375 -9.828125 C 19.4375 -11.367188 19.113281 -12.710938 18.46875 -13.859375 C 17.820312 -15.015625 16.925781 -15.921875 15.78125 -16.578125 C 14.644531 -17.234375 13.316406 -17.5625 11.796875 -17.5625 C 10.296875 -17.5625 8.96875 -17.234375 7.8125 -16.578125 C 6.664062 -15.921875 5.769531 -15.015625 5.125 -13.859375 C 4.476562 -12.710938 4.15625 -11.367188 4.15625 -9.828125 Z M 4.15625 -9.828125 "/></g></g></g><g fill="#ffffff" fill-opacity="1"><g transform="translate(128.86868, 196.618259)"><g><path d="M 2.859375 0 L 2.859375 -19.671875 L 10.359375 -19.671875 C 11.734375 -19.671875 12.925781 -19.410156 13.9375 -18.890625 C 14.945312 -18.378906 15.734375 -17.65625 16.296875 -16.71875 C 16.859375 -15.78125 17.140625 -14.65625 17.140625 -13.34375 C 17.140625 -11.75 16.726562 -10.429688 15.90625 -9.390625 C 15.082031 -8.359375 13.945312 -7.660156 12.5 -7.296875 L 17.453125 0 L 14.46875 0 L 9.671875 -7.046875 L 5.34375 -7.046875 L 5.34375 0 Z M 5.34375 -9.40625 L 10.078125 -9.40625 C 11.523438 -9.40625 12.640625 -9.75 13.421875 -10.4375 C 14.210938 -11.125 14.609375 -12.09375 14.609375 -13.34375 C 14.609375 -14.601562 14.210938 -15.578125 13.421875 -16.265625 C 12.640625 -16.960938 11.523438 -17.3125 10.078125 -17.3125 L 5.34375 -17.3125 Z M 5.34375 -9.40625 "/></g></g></g><g fill="#ffffff" fill-opacity="1"><g transform="translate(150.124655, 196.618259)"><g><path d="M 7.609375 0 L 7.609375 -17.3125 L 0.953125 -17.3125 L 0.953125 -19.671875 L 16.71875 -19.671875 L 16.71875 -17.3125 L 10.078125 -17.3125 L 10.078125 0 Z M 7.609375 0 "/></g></g></g><g fill="#000000" fill-opacity="1"><g transform="translate(208.360522, 196.769512)"><g><path d="M 2.078125 0 L 2.078125 -19.671875 L 15.0625 -19.671875 L 15.0625 -14.609375 L 7.75 -14.609375 L 7.75 -10.765625 L 14.328125 -10.765625 L 14.328125 -5.84375 L 7.75 -5.84375 L 7.75 0 Z M 2.078125 0 "/></g></g></g><g fill="#000000" fill-opacity="1"><g transform="translate(224.481325, 196.769512)"><g><path d="M 11.65625 0.421875 C 10.082031 0.421875 8.644531 0.175781 7.34375 -0.3125 C 6.039062 -0.8125 4.910156 -1.519531 3.953125 -2.4375 C 3.003906 -3.363281 2.265625 -4.453125 1.734375 -5.703125 C 1.210938 -6.953125 0.953125 -8.328125 0.953125 -9.828125 C 0.953125 -11.328125 1.210938 -12.703125 1.734375 -13.953125 C 2.265625 -15.210938 3.003906 -16.300781 3.953125 -17.21875 C 4.910156 -18.132812 6.039062 -18.84375 7.34375 -19.34375 C 8.644531 -19.84375 10.082031 -20.09375 11.65625 -20.09375 C 13.226562 -20.09375 14.664062 -19.84375 15.96875 -19.34375 C 17.269531 -18.84375 18.398438 -18.132812 19.359375 -17.21875 C 20.316406 -16.300781 21.054688 -15.210938 21.578125 -13.953125 C 22.097656 -12.703125 22.359375 -11.328125 22.359375 -9.828125 C 22.359375 -8.328125 22.097656 -6.953125 21.578125 -5.703125 C 21.054688 -4.453125 20.316406 -3.363281 19.359375 -2.4375 C 18.398438 -1.519531 17.269531 -0.8125 15.96875 -0.3125 C 14.664062 0.175781 13.226562 0.421875 11.65625 0.421875 Z M 6.71875 -9.828125 C 6.71875 -8.859375 6.925781 -7.992188 7.34375 -7.234375 C 7.769531 -6.472656 8.351562 -5.878906 9.09375 -5.453125 C 9.84375 -5.035156 10.695312 -4.828125 11.65625 -4.828125 C 12.632812 -4.828125 13.492188 -5.035156 14.234375 -5.453125 C 14.972656 -5.878906 15.550781 -6.472656 15.96875 -7.234375 C 16.394531 -7.992188 16.609375 -8.859375 16.609375 -9.828125 C 16.609375 -10.828125 16.394531 -11.695312 15.96875 -12.4375 C 15.550781 -13.1875 14.972656 -13.769531 14.234375 -14.1875 C 13.492188 -14.613281 12.632812 -14.828125 11.65625 -14.828125 C 10.695312 -14.828125 9.84375 -14.613281 9.09375 -14.1875 C 8.351562 -13.769531 7.769531 -13.1875 7.34375 -12.4375 C 6.925781 -11.695312 6.71875 -10.828125 6.71875 -9.828125 Z M 6.71875 -9.828125 "/></g></g></g><g fill="#000000" fill-opacity="1"><g transform="translate(247.819976, 196.769512)"><g><path d="M 2.078125 0 L 2.078125 -19.671875 L 7.75 -19.671875 L 7.75 -5.25 L 15.78125 -5.25 L 15.78125 0 Z M 2.078125 0 "/></g></g></g><g fill="#000000" fill-opacity="1"><g transform="translate(264.305879, 196.769512)"><g><path d="M 2.078125 0 L 2.078125 -19.671875 L 7.75 -19.671875 L 7.75 0 Z M 2.078125 0 "/></g></g></g><g fill="#000000" fill-opacity="1"><g transform="translate(274.135639, 196.769512)"><g><path d="M 11.65625 0.421875 C 10.082031 0.421875 8.644531 0.175781 7.34375 -0.3125 C 6.039062 -0.8125 4.910156 -1.519531 3.953125 -2.4375 C 3.003906 -3.363281 2.265625 -4.453125 1.734375 -5.703125 C 1.210938 -6.953125 0.953125 -8.328125 0.953125 -9.828125 C 0.953125 -11.328125 1.210938 -12.703125 1.734375 -13.953125 C 2.265625 -15.210938 3.003906 -16.300781 3.953125 -17.21875 C 4.910156 -18.132812 6.039062 -18.84375 7.34375 -19.34375 C 8.644531 -19.84375 10.082031 -20.09375 11.65625 -20.09375 C 13.226562 -20.09375 14.664062 -19.84375 15.96875 -19.34375 C 17.269531 -18.84375 18.398438 -18.132812 19.359375 -17.21875 C 20.316406 -16.300781 21.054688 -15.210938 21.578125 -13.953125 C 22.097656 -12.703125 22.359375 -11.328125 22.359375 -9.828125 C 22.359375 -8.328125 22.097656 -6.953125 21.578125 -5.703125 C 21.054688 -4.453125 20.316406 -3.363281 19.359375 -2.4375 C 18.398438 -1.519531 17.269531 -0.8125 15.96875 -0.3125 C 14.664062 0.175781 13.226562 0.421875 11.65625 0.421875 Z M 6.71875 -9.828125 C 6.71875 -8.859375 6.925781 -7.992188 7.34375 -7.234375 C 7.769531 -6.472656 8.351562 -5.878906 9.09375 -5.453125 C 9.84375 -5.035156 10.695312 -4.828125 11.65625 -4.828125 C 12.632812 -4.828125 13.492188 -5.035156 14.234375 -5.453125 C 14.972656 -5.878906 15.550781 -6.472656 15.96875 -7.234375 C 16.394531 -7.992188 16.609375 -8.859375 16.609375 -9.828125 C 16.609375 -10.828125 16.394531 -11.695312 15.96875 -12.4375 C 15.550781 -13.1875 14.972656 -13.769531 14.234375 -14.1875 C 13.492188 -14.613281 12.632812 -14.828125 11.65625 -14.828125 C 10.695312 -14.828125 9.84375 -14.613281 9.09375 -14.1875 C 8.351562 -13.769531 7.769531 -13.1875 7.34375 -12.4375 C 6.925781 -11.695312 6.71875 -10.828125 6.71875 -9.828125 Z M 6.71875 -9.828125 "/></g></g></g></svg>