<svg xmlns="http://www.w3.org/2000/svg" xmlns:xlink="http://www.w3.org/1999/xlink" width="500" zoomAndPan="magnify" viewBox="0 0 375 374.999991" height="500" preserveAspectRatio="xMidYMid meet" version="1.0"><defs><g/><clipPath id="42f307f49d"><path d="M 138 197 L 305.597656 197 L 305.597656 299 L 138 299 Z M 138 197 " clip-rule="nonzero"/></clipPath><clipPath id="2ec31a7fb6"><path d="M 67.429688 62.425781 L 287 62.425781 L 287 310 L 67.429688 310 Z M 67.429688 62.425781 " clip-rule="nonzero"/></clipPath></defs><g clip-path="url(#42f307f49d)"><path fill="#00c2cb" d="M 259.933594 256.941406 C 267.371094 243.941406 271.621094 228.882812 271.621094 212.835938 C 271.621094 207.53125 271.15625 202.335938 270.265625 197.289062 C 266.664062 217.308594 256.023438 234.886719 240.984375 247.351562 C 232.285156 254.566406 219.335938 253.101562 212.53125 244.082031 L 199.824219 227.246094 C 197.710938 224.445312 194.402344 222.800781 190.894531 222.800781 L 142.484375 222.800781 C 142.472656 222.800781 142.464844 222.800781 142.453125 222.800781 C 139.148438 222.824219 137.007812 226.308594 138.492188 229.269531 L 140.421875 233.105469 C 144.003906 240.242188 151.054688 244.984375 159.015625 245.609375 L 161.882812 245.835938 L 174.4375 246.824219 C 177.992188 247.105469 181.195312 249.070312 183.054688 252.113281 L 188.75 261.425781 L 191.9375 266.640625 L 209.796875 295.847656 C 210.113281 296.371094 210.511719 296.828125 210.964844 297.207031 C 212.273438 298.300781 214.046875 298.757812 215.765625 298.332031 C 215.78125 298.328125 215.792969 298.328125 215.804688 298.324219 C 262.128906 286.890625 297.816406 248.464844 305.226562 200.6875 C 298.722656 225.195312 282.019531 245.554688 259.933594 256.941406 " fill-opacity="1" fill-rule="nonzero"/></g><g clip-path="url(#2ec31a7fb6)"><path fill="#003479" d="M 179.636719 254.199219 C 178.453125 252.261719 176.390625 250.996094 174.121094 250.816406 L 158.699219 249.601562 C 149.402344 248.867188 141.027344 243.238281 136.84375 234.902344 L 135.015625 231.269531 C 133.71875 228.683594 133.691406 225.59375 135.121094 223.078125 C 136.601562 220.488281 139.261719 218.894531 142.21875 218.800781 L 142.484375 218.796875 L 157.984375 218.796875 C 152.929688 210.820312 143.824219 206.332031 134.398438 207.214844 L 118.292969 208.71875 C 111.394531 209.363281 105.195312 204.605469 103.925781 197.792969 C 102.984375 192.746094 102.492188 187.539062 102.492188 182.21875 C 102.492188 155.234375 115.128906 131.203125 134.808594 115.71875 C 115.3125 128.554688 100.140625 147.421875 91.953125 169.667969 C 99.328125 116.078125 145.296875 74.796875 200.917969 74.796875 C 235.34375 74.796875 266.074219 90.617188 286.246094 115.378906 C 264.808594 83.632812 228.539062 62.730469 187.375 62.625 C 121.484375 62.453125 67.5625 116.144531 67.460938 182.035156 C 67.429688 205.230469 74.003906 226.886719 85.402344 245.234375 C 85.644531 245.621094 85.882812 246.007812 86.125 246.394531 L 102.089844 243.6875 C 109.21875 242.480469 115.089844 249.375 112.664062 256.191406 C 112.597656 256.375 112.554688 256.480469 112.554688 256.480469 C 122.832031 260.214844 121.097656 270.226562 121.097656 270.226562 C 130.175781 274.367188 126.4375 282.910156 126.4375 282.910156 C 129.648438 284.234375 130.769531 286.828125 131.0625 287.679688 C 131.210938 288.109375 131.375 288.539062 131.539062 288.96875 L 137.75 304.894531 C 138.816406 307.632812 142.09375 309.875 145.03125 309.875 C 148.742188 309.875 151.308594 306.167969 150.003906 302.695312 L 143.222656 284.648438 C 142.953125 283.925781 143.445312 283.136719 144.230469 283.082031 C 144.742188 283.042969 145.210938 283.378906 145.40625 283.851562 L 150.5 296.113281 L 154.269531 305.1875 C 155.566406 308.3125 158.992188 310.105469 162.242188 309.15625 C 166.132812 308.019531 168.070312 303.660156 166.3125 300.011719 C 166.308594 300.007812 166.308594 300.007812 166.304688 300.003906 L 156.984375 280.742188 C 156.582031 279.914062 157.128906 278.941406 158.042969 278.855469 C 158.570312 278.804688 159.078125 279.078125 159.332031 279.542969 L 170.679688 300.6875 L 172.085938 303.3125 C 173.472656 305.898438 176.511719 307.242188 179.296875 306.320312 C 181.460938 305.605469 182.902344 303.792969 183.285156 301.746094 C 183.519531 300.496094 183.359375 299.160156 182.722656 297.929688 L 173.84375 280.71875 C 173.453125 279.960938 173.742188 278.992188 174.527344 278.664062 C 175.226562 278.375 176.007812 278.675781 176.347656 279.320312 L 186.382812 298.273438 C 187.195312 299.804688 188.402344 300.992188 189.816406 301.777344 C 192.167969 303.082031 195.085938 303.265625 197.6875 302.039062 C 198.191406 301.804688 198.648438 301.519531 199.078125 301.207031 C 202.636719 298.621094 203.753906 293.648438 201.367188 289.742188 L 179.636719 254.199219 " fill-opacity="1" fill-rule="nonzero"/></g><path fill="#00c2cb" d="M 92.882812 261.390625 L 105.441406 259.304688 C 109.207031 258.679688 111.757812 255.121094 111.132812 251.351562 C 110.507812 247.582031 106.945312 245.035156 103.175781 245.660156 L 90.617188 247.742188 C 86.851562 248.367188 84.304688 251.929688 84.929688 255.699219 C 85.554688 259.464844 89.113281 262.011719 92.882812 261.390625 " fill-opacity="1" fill-rule="nonzero"/><path fill="#00c2cb" d="M 117.539062 264.964844 C 116.914062 261.195312 113.351562 258.648438 109.582031 259.273438 L 92.441406 262.550781 C 88.675781 263.175781 86.125 266.738281 86.753906 270.503906 C 87.378906 274.273438 90.9375 276.824219 94.707031 276.195312 L 111.847656 272.921875 C 115.613281 272.292969 118.164062 268.734375 117.539062 264.964844 " fill-opacity="1" fill-rule="nonzero"/><path fill="#00c2cb" d="M 123.320312 279.203125 C 122.695312 275.433594 119.136719 272.886719 115.367188 273.511719 L 102.808594 275.59375 C 99.042969 276.21875 96.492188 279.78125 97.117188 283.550781 C 97.742188 287.316406 101.304688 289.863281 105.074219 289.238281 L 117.628906 287.15625 C 121.398438 286.53125 123.945312 282.972656 123.320312 279.203125 " fill-opacity="1" fill-rule="nonzero"/><path fill="#00c2cb" d="M 124.085938 286.859375 L 113.773438 288.503906 C 110.007812 289.125 107.460938 292.6875 108.085938 296.457031 C 108.710938 300.222656 112.269531 302.769531 116.039062 302.148438 L 126.351562 300.503906 C 130.121094 299.878906 132.667969 296.316406 132.042969 292.550781 C 131.417969 288.78125 127.855469 286.234375 124.085938 286.859375 " fill-opacity="1" fill-rule="nonzero"/><path fill="#003479" d="M 141.628906 182.558594 L 184.992188 182.558594 L 184.992188 184.28125 L 141.628906 184.28125 Z M 141.628906 182.558594 " fill-opacity="1" fill-rule="nonzero"/><g fill="#003479" fill-opacity="1"><g transform="translate(141.630382, 180.830876)"><g><path d="M 12.359375 -9.859375 C 12.359375 -9.015625 12.164062 -8.242188 11.78125 -7.546875 C 11.394531 -6.847656 10.800781 -6.285156 10 -5.859375 C 9.195312 -5.429688 8.203125 -5.21875 7.015625 -5.21875 L 4.828125 -5.21875 L 4.828125 0 L 1.28125 0 L 1.28125 -14.53125 L 7.015625 -14.53125 C 8.171875 -14.53125 9.148438 -14.328125 9.953125 -13.921875 C 10.753906 -13.523438 11.351562 -12.972656 11.75 -12.265625 C 12.15625 -11.566406 12.359375 -10.765625 12.359375 -9.859375 Z M 6.75 -8.03125 C 7.425781 -8.03125 7.925781 -8.1875 8.25 -8.5 C 8.582031 -8.820312 8.75 -9.273438 8.75 -9.859375 C 8.75 -10.429688 8.582031 -10.875 8.25 -11.1875 C 7.925781 -11.507812 7.425781 -11.671875 6.75 -11.671875 L 4.828125 -11.671875 L 4.828125 -8.03125 Z M 6.75 -8.03125 "/></g></g></g><g fill="#003479" fill-opacity="1"><g transform="translate(154.54519, 180.830876)"><g><path d="M 6.546875 0.171875 C 5.410156 0.171875 4.390625 -0.0664062 3.484375 -0.546875 C 2.578125 -1.035156 1.863281 -1.726562 1.34375 -2.625 C 0.832031 -3.519531 0.578125 -4.570312 0.578125 -5.78125 C 0.578125 -6.96875 0.835938 -8.007812 1.359375 -8.90625 C 1.890625 -9.8125 2.609375 -10.503906 3.515625 -10.984375 C 4.429688 -11.472656 5.453125 -11.71875 6.578125 -11.71875 C 7.710938 -11.71875 8.734375 -11.472656 9.640625 -10.984375 C 10.554688 -10.503906 11.273438 -9.8125 11.796875 -8.90625 C 12.328125 -8.007812 12.59375 -6.96875 12.59375 -5.78125 C 12.59375 -4.59375 12.328125 -3.546875 11.796875 -2.640625 C 11.265625 -1.734375 10.535156 -1.035156 9.609375 -0.546875 C 8.691406 -0.0664062 7.671875 0.171875 6.546875 0.171875 Z M 6.546875 -2.890625 C 7.222656 -2.890625 7.796875 -3.140625 8.265625 -3.640625 C 8.742188 -4.140625 8.984375 -4.851562 8.984375 -5.78125 C 8.984375 -6.695312 8.75 -7.40625 8.28125 -7.90625 C 7.820312 -8.40625 7.253906 -8.65625 6.578125 -8.65625 C 5.890625 -8.65625 5.316406 -8.410156 4.859375 -7.921875 C 4.410156 -7.429688 4.1875 -6.71875 4.1875 -5.78125 C 4.1875 -4.851562 4.410156 -4.140625 4.859375 -3.640625 C 5.304688 -3.140625 5.867188 -2.890625 6.546875 -2.890625 Z M 6.546875 -2.890625 "/></g></g></g><g fill="#003479" fill-opacity="1"><g transform="translate(167.729044, 180.830876)"><g><path d="M 4.828125 -9.625 C 5.234375 -10.257812 5.75 -10.757812 6.375 -11.125 C 7 -11.488281 7.691406 -11.671875 8.453125 -11.671875 L 8.453125 -7.921875 L 7.46875 -7.921875 C 6.59375 -7.921875 5.929688 -7.734375 5.484375 -7.359375 C 5.046875 -6.984375 4.828125 -6.316406 4.828125 -5.359375 L 4.828125 0 L 1.28125 0 L 1.28125 -11.546875 L 4.828125 -11.546875 Z M 4.828125 -9.625 "/></g></g></g><g fill="#003479" fill-opacity="1"><g transform="translate(176.587271, 180.830876)"><g><path d="M 7.71875 -3 L 7.71875 0 L 5.921875 0 C 4.640625 0 3.640625 -0.3125 2.921875 -0.9375 C 2.203125 -1.570312 1.84375 -2.597656 1.84375 -4.015625 L 1.84375 -8.609375 L 0.4375 -8.609375 L 0.4375 -11.546875 L 1.84375 -11.546875 L 1.84375 -14.375 L 5.375 -14.375 L 5.375 -11.546875 L 7.703125 -11.546875 L 7.703125 -8.609375 L 5.375 -8.609375 L 5.375 -3.96875 C 5.375 -3.625 5.457031 -3.375 5.625 -3.21875 C 5.789062 -3.070312 6.066406 -3 6.453125 -3 Z M 7.71875 -3 "/></g></g></g><path fill="#00c2cb" d="M 184.992188 182.558594 L 231.023438 182.558594 L 231.023438 184.28125 L 184.992188 184.28125 Z M 184.992188 182.558594 " fill-opacity="1" fill-rule="nonzero"/><g fill="#00c2cb" fill-opacity="1"><g transform="translate(184.992428, 180.830876)"><g><path d="M 7.078125 -8.609375 L 5.171875 -8.609375 L 5.171875 0 L 1.640625 0 L 1.640625 -8.609375 L 0.359375 -8.609375 L 0.359375 -11.546875 L 1.640625 -11.546875 L 1.640625 -11.890625 C 1.640625 -13.304688 2.046875 -14.382812 2.859375 -15.125 C 3.671875 -15.863281 4.863281 -16.234375 6.4375 -16.234375 C 6.695312 -16.234375 6.890625 -16.222656 7.015625 -16.203125 L 7.015625 -13.203125 C 6.335938 -13.242188 5.859375 -13.144531 5.578125 -12.90625 C 5.304688 -12.675781 5.171875 -12.257812 5.171875 -11.65625 L 5.171875 -11.546875 L 7.078125 -11.546875 Z M 7.078125 -8.609375 "/></g></g></g><g fill="#00c2cb" fill-opacity="1"><g transform="translate(192.443279, 180.830876)"><g><path d="M 6.546875 0.171875 C 5.410156 0.171875 4.390625 -0.0664062 3.484375 -0.546875 C 2.578125 -1.035156 1.863281 -1.726562 1.34375 -2.625 C 0.832031 -3.519531 0.578125 -4.570312 0.578125 -5.78125 C 0.578125 -6.96875 0.835938 -8.007812 1.359375 -8.90625 C 1.890625 -9.8125 2.609375 -10.503906 3.515625 -10.984375 C 4.429688 -11.472656 5.453125 -11.71875 6.578125 -11.71875 C 7.710938 -11.71875 8.734375 -11.472656 9.640625 -10.984375 C 10.554688 -10.503906 11.273438 -9.8125 11.796875 -8.90625 C 12.328125 -8.007812 12.59375 -6.96875 12.59375 -5.78125 C 12.59375 -4.59375 12.328125 -3.546875 11.796875 -2.640625 C 11.265625 -1.734375 10.535156 -1.035156 9.609375 -0.546875 C 8.691406 -0.0664062 7.671875 0.171875 6.546875 0.171875 Z M 6.546875 -2.890625 C 7.222656 -2.890625 7.796875 -3.140625 8.265625 -3.640625 C 8.742188 -4.140625 8.984375 -4.851562 8.984375 -5.78125 C 8.984375 -6.695312 8.75 -7.40625 8.28125 -7.90625 C 7.820312 -8.40625 7.253906 -8.65625 6.578125 -8.65625 C 5.890625 -8.65625 5.316406 -8.410156 4.859375 -7.921875 C 4.410156 -7.429688 4.1875 -6.71875 4.1875 -5.78125 C 4.1875 -4.851562 4.410156 -4.140625 4.859375 -3.640625 C 5.304688 -3.140625 5.867188 -2.890625 6.546875 -2.890625 Z M 6.546875 -2.890625 "/></g></g></g><g fill="#00c2cb" fill-opacity="1"><g transform="translate(205.627133, 180.830876)"><g><path d="M 4.828125 -15.3125 L 4.828125 0 L 1.28125 0 L 1.28125 -15.3125 Z M 4.828125 -15.3125 "/></g></g></g><g fill="#00c2cb" fill-opacity="1"><g transform="translate(211.732689, 180.830876)"><g><path d="M 3.0625 -12.75 C 2.4375 -12.75 1.925781 -12.929688 1.53125 -13.296875 C 1.144531 -13.660156 0.953125 -14.113281 0.953125 -14.65625 C 0.953125 -15.207031 1.144531 -15.664062 1.53125 -16.03125 C 1.925781 -16.394531 2.4375 -16.578125 3.0625 -16.578125 C 3.664062 -16.578125 4.164062 -16.394531 4.5625 -16.03125 C 4.957031 -15.664062 5.15625 -15.207031 5.15625 -14.65625 C 5.15625 -14.113281 4.957031 -13.660156 4.5625 -13.296875 C 4.164062 -12.929688 3.664062 -12.75 3.0625 -12.75 Z M 4.828125 -11.546875 L 4.828125 0 L 1.28125 0 L 1.28125 -11.546875 Z M 4.828125 -11.546875 "/></g></g></g><g fill="#00c2cb" fill-opacity="1"><g transform="translate(217.838245, 180.830876)"><g><path d="M 6.546875 0.171875 C 5.410156 0.171875 4.390625 -0.0664062 3.484375 -0.546875 C 2.578125 -1.035156 1.863281 -1.726562 1.34375 -2.625 C 0.832031 -3.519531 0.578125 -4.570312 0.578125 -5.78125 C 0.578125 -6.96875 0.835938 -8.007812 1.359375 -8.90625 C 1.890625 -9.8125 2.609375 -10.503906 3.515625 -10.984375 C 4.429688 -11.472656 5.453125 -11.71875 6.578125 -11.71875 C 7.710938 -11.71875 8.734375 -11.472656 9.640625 -10.984375 C 10.554688 -10.503906 11.273438 -9.8125 11.796875 -8.90625 C 12.328125 -8.007812 12.59375 -6.96875 12.59375 -5.78125 C 12.59375 -4.59375 12.328125 -3.546875 11.796875 -2.640625 C 11.265625 -1.734375 10.535156 -1.035156 9.609375 -0.546875 C 8.691406 -0.0664062 7.671875 0.171875 6.546875 0.171875 Z M 6.546875 -2.890625 C 7.222656 -2.890625 7.796875 -3.140625 8.265625 -3.640625 C 8.742188 -4.140625 8.984375 -4.851562 8.984375 -5.78125 C 8.984375 -6.695312 8.75 -7.40625 8.28125 -7.90625 C 7.820312 -8.40625 7.253906 -8.65625 6.578125 -8.65625 C 5.890625 -8.65625 5.316406 -8.410156 4.859375 -7.921875 C 4.410156 -7.429688 4.1875 -6.71875 4.1875 -5.78125 C 4.1875 -4.851562 4.410156 -4.140625 4.859375 -3.640625 C 5.304688 -3.140625 5.867188 -2.890625 6.546875 -2.890625 Z M 6.546875 -2.890625 "/></g></g></g></svg>